<?xml version="1.0" standalone="no"?>
<!DOCTYPE svg PUBLIC "-//W3C//DTD SVG 20010904//EN"
 "http://www.w3.org/TR/2001/REC-SVG-20010904/DTD/svg10.dtd">
<svg version="1.0" xmlns="http://www.w3.org/2000/svg"
 width="1434.000000pt" height="349.000000pt" viewBox="0 0 1434.000000 349.000000"
 preserveAspectRatio="xMidYMid meet">

<g transform="translate(0.000000,349.000000) scale(0.100000,-0.100000)"
fill="#000000" stroke="none">
<path d="M1383 3279 c-216 -21 -364 -96 -523 -266 -153 -164 -222 -281 -309
-528 -27 -77 -67 -181 -90 -232 -22 -51 -48 -118 -57 -149 -21 -73 -21 -230 1
-314 22 -84 83 -204 134 -261 l41 -47 -34 -26 c-57 -43 -70 -93 -63 -254 9
-236 55 -407 153 -571 98 -166 213 -261 298 -246 112 19 99 22 168 -42 81 -75
122 -100 188 -114 113 -24 206 22 285 142 26 38 50 69 54 69 5 0 41 -27 82
-60 203 -166 367 -180 444 -38 81 149 116 371 86 548 -5 34 -5 281 2 650 12
661 13 638 -59 1014 -63 323 -169 534 -318 634 -90 60 -147 80 -263 92 -98 11
-103 11 -220 -1z m322 -241 c130 -68 214 -235 274 -542 33 -164 39 -246 20
-246 -7 0 -33 20 -59 44 -135 126 -314 31 -395 -208 -15 -45 -38 -105 -51
-133 -13 -29 -26 -63 -29 -76 -9 -34 11 -74 47 -97 28 -18 43 -20 94 -15 42 4
81 1 125 -10 83 -22 187 -22 228 0 69 35 66 58 66 -425 0 -239 4 -481 9 -537
13 -151 -20 -297 -71 -309 -37 -10 -114 48 -189 141 -79 98 -107 155 -129 265
-21 107 -48 156 -99 182 -49 25 -93 18 -130 -21 -51 -53 -52 -115 -4 -290 24
-90 27 -151 9 -213 -18 -63 -51 -98 -92 -98 -26 0 -43 10 -84 53 -95 98 -138
202 -153 370 -12 126 -31 172 -85 200 -45 23 -85 16 -121 -20 -37 -37 -49 -93
-43 -198 2 -49 2 -98 -2 -108 -6 -18 -7 -18 -23 0 -73 83 -127 309 -128 536 0
71 -15 120 -50 165 l-21 26 46 39 c41 35 45 42 45 85 0 35 -9 61 -39 112 -56
93 -74 165 -69 264 4 71 12 98 60 211 31 72 74 182 96 246 75 216 161 353 307
487 131 120 230 153 450 149 130 -2 144 -4 190 -29z m115 -968 c16 -30 8 -91
-12 -104 -30 -18 -53 5 -52 52 1 64 41 96 64 52z"/>
<path d="M992 2481 c-97 -71 -205 -302 -206 -446 -1 -54 4 -69 49 -149 56
-100 97 -140 156 -156 113 -31 267 56 330 187 51 105 49 267 -5 378 -38 76
-110 172 -149 195 -50 31 -124 27 -175 -9z m139 -298 c27 -81 7 -185 -43 -216
-28 -18 -65 6 -79 52 -10 35 -9 49 11 112 38 117 82 137 111 52z"/>
<path d="M8585 2456 c-17 -7 -57 -36 -90 -63 -33 -27 -98 -75 -145 -106 -98
-64 -247 -206 -266 -254 -19 -45 -17 -89 6 -159 18 -54 20 -81 18 -264 -4
-245 6 -236 -152 -162 -167 80 -206 120 -206 216 0 56 19 107 82 212 55 95 73
159 59 211 -22 79 -84 136 -174 160 -66 17 -118 17 -242 -2 -210 -32 -233 -41
-266 -106 -28 -55 -25 -113 10 -180 54 -101 95 -518 82 -819 -5 -102 9 -148
48 -170 30 -16 94 -12 117 8 44 35 47 55 50 307 3 290 2 277 13 271 5 -3 23
-30 40 -60 44 -79 84 -120 164 -170 85 -53 265 -131 335 -147 27 -5 65 -21 83
-35 43 -32 98 -32 126 -2 43 48 47 67 53 258 l5 185 66 5 c51 4 77 12 115 36
70 44 83 51 136 73 50 21 88 67 88 109 0 61 -57 112 -125 112 -44 0 -71 -13
-170 -85 -42 -30 -83 -55 -91 -55 -23 0 -34 36 -34 117 0 102 13 123 131 203
52 35 135 96 186 136 105 84 126 120 98 173 -28 54 -89 74 -150 47z m-937
-442 c2 -11 -19 -63 -46 -115 -27 -52 -57 -127 -67 -167 -12 -50 -21 -70 -28
-63 -14 14 -35 129 -43 237 l-7 90 29 23 c23 18 38 21 93 19 58 -3 66 -6 69
-24z"/>
<path d="M5162 2425 c-102 -43 -85 -205 22 -205 33 0 82 43 96 84 27 83 -41
153 -118 121z"/>
<path d="M3255 2406 c-230 -76 -389 -228 -440 -423 -34 -129 -7 -536 50 -768
24 -95 83 -204 132 -241 81 -62 216 -68 391 -18 194 55 339 161 399 291 35 75
43 184 18 248 -28 76 -119 134 -208 135 -61 0 -102 -21 -116 -61 -16 -45 6
-88 68 -132 56 -40 63 -64 37 -116 -46 -87 -236 -180 -380 -184 -54 -1 -60 1
-87 30 -38 43 -55 105 -85 313 -20 139 -25 204 -22 315 3 129 5 144 31 197 48
98 146 168 306 219 93 30 131 63 131 114 0 27 -8 44 -29 66 -27 26 -36 29 -93
28 -35 0 -81 -6 -103 -13z"/>
<path d="M9765 2364 c-47 -24 -118 -98 -222 -231 -117 -151 -129 -155 -169
-48 -23 61 -79 120 -124 129 -44 8 -107 -22 -137 -66 -27 -41 -103 -254 -132
-368 -11 -47 -34 -166 -50 -265 -17 -99 -37 -203 -46 -230 -8 -28 -15 -70 -15
-93 0 -37 6 -50 34 -78 37 -37 62 -42 105 -20 59 31 80 94 127 366 48 285 71
370 98 370 5 0 28 -18 51 -39 82 -76 163 -76 248 -1 25 22 86 94 137 160 61
81 97 120 111 120 10 0 20 -6 21 -12 2 -7 3 -220 3 -473 0 -451 0 -461 21
-500 29 -53 54 -75 98 -82 50 -8 80 15 101 77 l17 52 48 -7 c102 -14 137 32
185 242 39 175 42 183 64 183 42 0 208 -43 231 -59 24 -18 25 -22 25 -135 0
-116 0 -118 28 -142 60 -51 141 -16 166 72 32 112 44 235 44 439 1 236 -11
311 -63 424 -61 130 -146 185 -248 159 -49 -12 -130 -81 -186 -157 -94 -128
-199 -393 -243 -616 -25 -129 -44 -185 -63 -185 -14 0 -14 5 -14 445 -1 346
-3 396 -19 442 -41 120 -141 175 -232 127z m829 -349 c15 -30 21 -68 24 -152
5 -133 -1 -149 -57 -137 -20 4 -65 10 -101 13 -63 6 -65 7 -68 36 -3 33 57
165 109 241 39 57 65 57 93 -1z"/>
<path d="M13195 2304 c-239 -84 -331 -114 -354 -114 -13 0 -40 12 -60 27 -47
37 -92 36 -131 -2 -50 -48 -57 -85 -101 -510 -21 -210 -37 -321 -69 -495 -25
-131 -25 -177 -1 -216 50 -81 165 -55 190 44 5 20 17 91 26 157 10 66 23 147
30 180 8 33 24 166 35 295 22 229 32 276 63 284 62 18 265 86 357 120 63 24
150 51 192 60 62 14 82 23 103 47 40 48 29 105 -27 139 -52 32 -133 27 -253
-16z"/>
<path d="M11221 2268 c-40 -36 -59 -97 -71 -218 -37 -384 -53 -517 -71 -614
-17 -90 -19 -117 -10 -148 28 -91 138 -90 186 1 23 46 53 214 74 421 48 470
49 495 26 539 -8 16 -22 31 -30 35 -34 13 -82 6 -104 -16z"/>
<path d="M4210 2234 c-86 -73 -107 -226 -75 -554 15 -162 27 -220 61 -297 52
-120 130 -183 226 -183 71 0 117 21 174 82 95 99 118 186 118 460 1 194 0 208
-20 235 -30 40 -86 53 -122 27 -55 -41 -65 -79 -71 -293 -6 -172 -9 -200 -27
-231 -11 -19 -30 -36 -41 -38 -49 -7 -77 92 -94 331 -12 183 -9 242 21 318 28
70 26 110 -6 143 -37 36 -100 36 -144 0z"/>
<path d="M5883 2171 c-82 -51 -232 -352 -334 -675 -71 -222 -79 -289 -41 -329
32 -34 66 -41 107 -21 47 22 67 58 108 194 48 158 53 169 81 180 26 9 113 -7
153 -28 35 -19 43 -44 54 -163 13 -149 35 -189 107 -189 39 0 78 32 93 77 28
85 -33 676 -83 808 -51 134 -158 198 -245 146z m65 -333 c19 -19 15 -97 -4
-105 -43 -16 -66 35 -39 86 17 34 25 37 43 19z"/>
<path d="M11719 2127 c-152 -46 -197 -91 -186 -187 5 -39 1 -65 -18 -115 -34
-89 -33 -164 0 -232 28 -55 127 -155 235 -238 36 -27 105 -82 153 -123 49 -40
104 -84 124 -98 75 -51 163 -18 163 61 0 72 -31 105 -270 296 -210 167 -232
198 -196 268 18 35 81 92 150 136 77 49 106 87 106 139 0 107 -96 141 -261 93z"/>
<path d="M5154 1923 c-12 -2 -32 -15 -45 -29 l-24 -26 3 -311 c3 -275 6 -317
22 -354 20 -46 44 -63 87 -63 41 0 69 23 88 73 14 37 16 83 13 327 -3 250 -5
289 -21 317 -26 49 -76 75 -123 66z"/>
<path d="M13194 1700 c-11 -4 -53 -29 -93 -55 -41 -26 -120 -69 -176 -96 -102
-48 -155 -92 -155 -127 0 -33 38 -80 75 -92 56 -19 108 -6 240 60 66 32 146
70 177 84 88 38 119 106 83 176 -26 50 -95 73 -151 50z"/>
<path d="M8425 1286 c-57 -57 -12 -151 88 -181 59 -18 168 -18 215 -2 38 14
88 59 97 88 10 29 -13 78 -44 93 -16 8 -85 16 -178 21 l-152 7 -26 -26z"/>
<path d="M13095 1034 c-132 -58 -178 -68 -246 -55 -70 14 -109 -1 -135 -50
-31 -61 10 -146 83 -170 104 -34 403 60 470 148 38 50 38 106 0 139 -38 33
-77 30 -172 -12z"/>
</g>
</svg>
