<?xml version="1.0" standalone="no"?>
<!DOCTYPE svg PUBLIC "-//W3C//DTD SVG 20010904//EN"
 "http://www.w3.org/TR/2001/REC-SVG-20010904/DTD/svg10.dtd">
<svg version="1.0" xmlns="http://www.w3.org/2000/svg"
 width="320.000000pt" height="431.000000pt" viewBox="0 0 320.000000 431.000000"
 preserveAspectRatio="xMidYMid meet">

<g transform="translate(0.000000,431.000000) scale(0.100000,-0.100000)"
fill="#000000" stroke="none">
<path d="M1725 4100 c-194 -22 -332 -68 -460 -152 -96 -62 -254 -219 -348
-343 -81 -108 -179 -300 -246 -485 -27 -74 -81 -215 -120 -314 -54 -135 -74
-198 -82 -260 -12 -91 -4 -230 17 -315 20 -81 105 -246 163 -317 l49 -61 -47
-45 c-66 -61 -76 -105 -68 -302 13 -334 85 -569 239 -792 66 -96 172 -196 232
-219 40 -16 58 -17 124 -8 42 5 86 7 97 3 11 -5 56 -40 100 -79 100 -88 165
-120 254 -128 128 -11 213 40 327 194 35 48 59 71 67 66 7 -4 52 -37 100 -75
162 -124 298 -175 410 -154 90 17 172 145 224 352 26 103 27 119 24 294 -6
314 -6 642 -1 1220 5 589 5 583 -46 860 -71 388 -136 585 -250 757 -103 155
-255 259 -420 288 -113 20 -244 25 -339 15z m383 -305 c70 -38 148 -124 195
-212 68 -129 136 -372 172 -610 17 -113 19 -150 6 -157 -5 -3 -35 15 -67 40
-75 59 -114 75 -179 75 -117 0 -236 -105 -303 -266 -72 -174 -122 -316 -122
-347 0 -76 75 -125 174 -113 37 5 81 1 142 -11 115 -24 257 -25 301 -1 41 22
59 22 68 0 4 -10 11 -326 16 -703 6 -578 5 -695 -7 -748 -17 -76 -37 -118 -64
-132 -52 -28 -199 93 -301 246 -59 88 -75 125 -105 252 -28 118 -43 153 -87
200 -62 64 -148 63 -206 -3 -52 -60 -54 -139 -5 -330 38 -152 38 -250 0 -329
-31 -64 -70 -91 -116 -81 -34 7 -143 119 -182 186 -44 75 -76 188 -94 325 -20
158 -37 208 -86 247 -71 57 -150 38 -200 -48 -21 -36 -23 -54 -26 -198 -3
-114 -7 -157 -15 -154 -25 7 -78 103 -106 190 -38 120 -59 256 -70 442 -7 122
-13 159 -31 197 -12 26 -28 52 -36 59 -23 19 -17 33 36 81 49 44 50 47 50 102
0 49 -7 71 -50 154 -61 117 -80 183 -80 282 0 95 16 158 85 325 30 73 78 196
106 272 100 271 175 398 322 550 207 214 306 254 627 250 184 -2 185 -2 238
-32z m142 -1204 c27 -51 1 -141 -41 -141 -36 0 -49 66 -25 125 17 40 49 47 66
16z"/>
<path d="M1278 3129 c-139 -39 -318 -374 -318 -595 0 -54 6 -73 41 -141 58
-110 112 -178 166 -210 103 -60 256 -22 372 95 95 94 131 189 131 345 0 150
-36 250 -142 390 -28 38 -67 79 -87 92 -42 28 -111 38 -163 24z m104 -386 c54
-123 -2 -310 -87 -289 -60 15 -77 122 -36 228 46 118 88 139 123 61z"/>
</g>
</svg>
